/* XPM */
static char *result[] = {
/* columns rows colors chars-per-pixel */
"32 32 19 1 ",
"  c #F6F6F6",
". c gray98",
"X c #EFEFEF",
"o c #F8F8F8",
"O c white",
"+ c #F3F3F3",
"@ c #E6E6E6",
"# c #D5D5D5",
"$ c #F1F1F1",
"% c #F4F4F4",
"& c #FBFBFB",
"* c #E7E7E7",
"= c #FDFDFD",
"- c black",
"; c #EEEBF1",
": c #EDE2F4",
"> c #4782C9",
", c #BDC0C9",
"< c #DFDFDF",
/* pixels */
" .XXXXoOOO+@#X$%&OOOoXXX  XXXXX*",
"=OXXXX$%%%XX---------XX == XXXXX",
" +$%&OO&%X--OOOOOOOOO--X . X+OOo",
"XX+&OOO=.-OOOOOOOOOOOOO-XXXX OO&",
"XXX$%%%+X-OOOOOOOOOOOOO-.. XX%%$",
"... XXX+-OOOOOOOOOOOOOOO-O=.+XXX",
"OOOO%X+.-OOOOOOOOOOOOOOO-OOO%$oO",
"OOOO%X%+-OOOOOOOOOOOOOOO-OOO%%OO",
"%&O&$ O=-OOOOOOOOOOOOOOO-OOO%%OO",
"XXXXX.OO%-OOOOOOOOOOOOO-OOO%XX%O",
"XX%%$X. --OOOOOOOOOOOOO--XX+%%+X",
";+OOo%%%-OOOO-------OOOO-X$&OO&%",
":.OOOOOO-OOO---OOO---OOO-X%OOOOO",
"X.OOOOOOO--OOO--O--OOO--XX%OOOO%",
"%%+.=O X-----------------%+X . X",
"OO X+%X->>--,,,,,,,,,-->>-=+XX+.",
"OO= X -->>>>--,,,,,-->>>>--&.+&O",
"OOO..O->>>->>>----->>>->>>-OO%OO",
"..XX ->>>--->>>>>>>>>--->>>-++&O",
" .. X->>>>->>>>>>>>>>>->>>>-.X$%",
"=OO=+->>>>->>>>>>>>>>>->>>>-O XX",
"OOOO%X->>->>>>>>>>>>>>>->>-OO.XX",
"X . X+%--->>>>>>>>>>>>>---X .X$$",
"XXXX =OO--->>------->>---XXXX+&&",
"XXXX+&OO----------------O XXX%Oo",
"XXX$%%+..---------------OO.XX+XX",
"XX$oOO%%%------- ------=O= X+&+X",
"XX%OOOOO---,,,,-X-OOOO-+%+XX.O=+",
"XX$oOOO&%--,,,,-+---OO---XXX+O&$",
"%$XXXX$%%X-----++----OO--XXXXXXX",
"OoXXX+oOO%XXXX$%&------XXXXXXXXX",
"OOXXX+OOOOXXX.&OOOO&+XXXXXXXXXX<"
};
