/* XPM */
static char *result[] = {
/* columns rows colors chars-per-pixel */
"32 32 54 1 ",
"  c #368D55",
". c #3B8F53",
"X c black",
"o c #3A8F53",
"O c white",
"+ c #348B56",
"@ c #3B8F54",
"# c #76A047",
"$ c #20775D",
"% c #1D745D",
"& c #7AA245",
"* c #297A58",
"= c #79A046",
"- c #78A045",
"; c #21745B",
": c #80A443",
"> c #779E45",
", c #1A645D",
"< c #75A048",
"1 c #308458",
"2 c #156765",
"3 c #156764",
"4 c #1A6E5E",
"5 c #7BA245",
"6 c #80A442",
"7 c #7AA246",
"8 c #3F9151",
"9 c #76A148",
"0 c #75A047",
"q c #368D56",
"w c #4782C9",
"e c #BDC0C9",
"r c #7BA345",
"t c #378D55",
"y c #7FA443",
"u c #328957",
"i c #24785B",
"p c #1F765D",
"a c #1D745E",
"s c #23785B",
"d c #719C49",
"f c #6F9A49",
"g c #22755C",
"h c #719D4A",
"j c #77A148",
"k c #18635D",
"l c #729C48",
"z c #318457",
"x c #1C725E",
"c c #22765C",
"v c #3F9051",
"b c #77A047",
"n c #146766",
"m c #388A54",
/* pixels */
"                ..              ",
"            XXXXXXXXX           ",
"       oo XXOOOOOOOOOXX  +++    ",
"      @##XOOOOOOOOOOOOOX+$%%    ",
"        &XOOOOOOOOOOOOOX*=-;    ",
"        XOOOOOOOOOOOOOOOX:>,    ",
"       oXOOOOOOOOOOOOOOOX<12    ",
"      @#XOOOOOOOOOOOOOOOXo34    ",
"  56@ 7&XOOOOOOOOOOOOOOOX    @. ",
"  859@@@ XOOOOOOOOOOOOOX    .<0o",
"        XXOOOOOOOOOOOOOXX   &&q ",
"        XOOOOXXXXXXXOOOOX   ..  ",
"        XOOOXXXOOOXXXOOOX       ",
"         XXOOOXXOXXOOOXX        ",
"        XXXXXXXXXXXXXXXXX       ",
"       XwwXXeeeeeeeeeXXwwX      ",
"      XXwwwwXXeeeeeXXwwwwXX     ",
"      XwwwXwwwXXXXXwwwXwwwX     ",
"     XwwwXXXwwwwwwwwwXXXwwwX    ",
"    oXwwwwXwwwwwwwwwwwXwwwwX    ",
"  58oXwwwwXwwwwwwwwwwwXwwwwX&@  ",
"  :r oXwwXwwwwwwwwwwwwwXwwX9&@  ",
"  o9   XXXwwwwwwwwwwwwwXXXo9t@yr",
"   @    XXXwwXXXXXXXwwXXX& @o<58",
"   +++uiXXXXXXXXXXXXXXXX        ",
"  +paasdfXXXXXXXXXXXXXXX        ",
"  ghj8klzXXXXXXX XXXXXX         ",
"  xcvbnmXXXeeeeX XOOOOX         ",
"         XXeeeeX XXXOOXXX       ",
"          XXXXX  XXXXOOXX       ",
"                 XXXXXX         ",
"                                "
};
