/* XPM */
static char *result[] = {
/* columns rows colors chars-per-pixel */
"32 32 170 2 ",
"   c #F6F6F6",
".  c gray98",
"X  c #EFEFEF",
"o  c #F8F8F8",
"O  c white",
"+  c #F3F3F3",
"@  c #E6E6E6",
"#  c #D5D5D5",
"$  c #F1F1F1",
"%  c #F4F4F4",
"&  c #FBFBFB",
"*  c #E7E7E7",
"=  c #FDFDFD",
"-  c #EEEBF1",
";  c black",
":  c #EDE2F4",
">  c #ECB05A",
",  c #EDB664",
"<  c #DB8923",
"1  c #DE9021",
"2  c #F0B056",
"3  c #F1BB65",
"4  c #F2BC62",
"5  c #E6BA73",
"6  c #F2BE68",
"7  c #E89827",
"8  c #F0AC47",
"9  c #E6AF4B",
"0  c #F3B757",
"q  c #EBB14D",
"w  c #EDA02C",
"e  c #E3A24E",
"r  c #E7983C",
"t  c #DE9536",
"y  c #F6C17B",
"u  c #E5AD58",
"i  c #E19645",
"p  c #CF822A",
"a  c #C3650E",
"s  c #C66909",
"d  c #D67107",
"f  c #EDA944",
"g  c #F5A63D",
"h  c #F4B251",
"j  c #D17220",
"k  c #EAA45F",
"l  c #DE771A",
"z  c #D68543",
"x  c #D0791A",
"c  c #F0AB4E",
"v  c #C8611E",
"b  c #D87C17",
"n  c #F49B23",
"m  c #E28D19",
"M  c #ED9C29",
"N  c #E78917",
"B  c #F8B54D",
"V  c #DD7C1D",
"C  c #E0923F",
"Z  c #E49A53",
"A  c #E0272C",
"S  c #E1282D",
"D  c #0B0303",
"F  c #010000",
"G  c #DE7814",
"H  c #F2B767",
"J  c #ED9527",
"K  c #E69238",
"L  c #EEA944",
"P  c #EA9332",
"I  c #070102",
"U  c #0C0203",
"Y  c #BC252C",
"T  c #EC3638",
"R  c #FD4B49",
"E  c #0E0404",
"W  c #D78E4A",
"Q  c #DB7B25",
"!  c #C36422",
"~  c #CE6B1A",
"^  c #E23C3D",
"/  c #CE2F34",
"(  c #EB3437",
")  c #FC4948",
"_  c #FD4A48",
"`  c #270C0B",
"'  c #090303",
"]  c #110505",
"[  c #DA3539",
"{  c #BF272D",
"}  c #F6373C",
"|  c #FB4545",
" . c #FB4646",
".. c #E94446",
"X. c #C1272E",
"o. c #F33038",
"O. c #F43239",
"+. c #F74044",
"@. c #FC4847",
"#. c #FA4344",
"$. c #F7343A",
"%. c #F5373D",
"&. c #F1343B",
"*. c #C3272E",
"=. c #F43A41",
"-. c #F4373E",
";. c #F4343B",
":. c #F3323A",
">. c #E32D34",
",. c #C0262D",
"<. c #F3333B",
"1. c #F43C44",
"2. c #F23A42",
"3. c #D92B32",
"4. c #C3262E",
"5. c #F13038",
"6. c #EC353D",
"7. c #E02D34",
"8. c #CD2830",
"9. c #C5282F",
"0. c #BE252C",
"q. c #BF262D",
"w. c #090202",
"e. c #E62F29",
"r. c #E23131",
"t. c #CB282F",
"y. c #C7272C",
"u. c #C1262D",
"i. c #BA2C32",
"p. c #E9E9E9",
"a. c #ACACAC",
"s. c #838383",
"d. c #030101",
"f. c #0D0303",
"g. c #040101",
"h. c #030001",
"j. c #060101",
"k. c #929292",
"l. c gray84",
"z. c gray54",
"x. c gray52",
"c. c gray55",
"v. c #8E8E8E",
"b. c #888888",
"n. c #898989",
"m. c gray67",
"M. c gray95",
"N. c gray73",
"B. c #868686",
"V. c #909090",
"C. c gray59",
"Z. c gray58",
"A. c #979797",
"S. c #939393",
"D. c #E2E2E2",
"F. c #CECECE",
"G. c #B7B7B7",
"H. c #AFAFAF",
"J. c #AAAAAA",
"K. c #A0A0A0",
"L. c gray60",
"P. c gray63",
"I. c #9D9D9D",
"U. c #A5A5A5",
"Y. c #CBCBCB",
"T. c #FEFEFE",
"R. c #EEEEEE",
"E. c gray93",
"W. c #F9F9F9",
"Q. c #DFDFDF",
/* pixels */
"  . X X X X o O O O + @ # X $ % & O O O o X X X     X X X X X * ",
"= O X X X X $ % % % X X X X X X + % % % $ X X   = =   X X X X X ",
"  + $ % & O O & % X X $ & O % % $ X $ % % % X X   .   X + O O o ",
"X X + & O O O = . X $ o O O O O o X + = O . X X X X X X   O O & ",
"X X X $ % % % + X X % O O O O O O X X + % X X   . .   X X % % $ ",
". . .   X X X + . X % O O O O O o X X X X X + = O O = . + X X X ",
"O O O O % X + . = O X + . .   X X % O % X % O O O O O O % $ o O ",
"O O O O % X % +   . X X X X X X X O O % X O O O O O O O % % O O ",
"% & O & $   O = + X X + . . . . + % % $ X % O O O O O O % % O O ",
"X X X X X . O O % X % O O O O O O X X X X X X . O O O % X X % O ",
"X X % % $ X .   X X O O O O O O O O X + & O & $ X X X + % % + X ",
"- + O O o % % % $ X O O ; ; ; O ; ; X ; O ; O o $ X $ & O O & % ",
": . O O O O O O & ; o ; > , < ; 1 2 ; 3 ; 4 ; O % X % O O O O O ",
"X . O O O O O O ; 5 ; 6 7 8 9 0 q w e r t y u ; X X % O O O O % ",
"% % + . = O   X ; 5 i 6 7 8 9 0 q w e r t y u ; % % + X   .   X ",
"O O   X + % X X ; p a i s d f g h j k l z x c ; O O = + X X + . ",
"O O =   X     X ; ; ; v b n m M N B V C Z ; ; ; O O O & . + & O ",
"O O O . . O . X ; A S D F G H J K L P I U Y Y ; O O O O O % O O ",
". . X X   . X $ ; A T R R E W Q ! ~ ; ^ / Y Y ; . . . . + + & O ",
"  . .   X X + & ; A ( ) _ ) ` ' ; ] ) [ { Y Y ; . X X   . X $ % ",
"= O O = + X & O O ; S } | ) R R R )  ...X.Y ; = O   + = O   X X ",
"O O O O % X % O O ; A o.O.+.| @.#.$.%.&.*.Y ; . O X % O O . X X ",
"X   .   X + % % % ; A o.o.=.o.-.;.o.:.>.,.Y ; X X X X   . X $ $ ",
"X X X X   = O O O ; A o.o.o.<.1.<.2.3.4.Y Y ; . . X X X X + & & ",
"X X X X + & O O O O ; o.o.5.6.7.8.9.0.q.Y w.+ O O   X X X % O o ",
"X X X $ % % + . . $ ; e.A r.t.y.0.u.,.u.i.; p.= O O . X X + X X ",
"X X $ o O O % % % a.s.; ; d.U U f.g.h.I j.k.l.= O =   X + & + X ",
"X X % O O O O O . z.s.x.c.v.b.b.b.b.z.v.v.n.m.M.% + X X . O = + ",
"X X $ o O O O & N.B.b.V.C.C.Z.Z.V.v.V.A.A.S.c.D.X X X X + O & $ ",
"% $ X X X X $ + F.G.H.J.K.L.A.S.S.S.S.A.P.I.U.Y.X X X X X X X X ",
"O o X X X + o T.O % R.R.R.E.R.$ o = W.X R.R.R.X X X X X X X X X ",
"O O X X X + O T.T.T.X X X . & O O O O & + X X X X X X X X X X Q."
};
