/* XPM */
static char *result[] = {
/* columns rows colors chars-per-pixel */
"32 32 70 1 ",
"  c #F6F6F6",
". c gray98",
"X c #EFEFEF",
"o c #F8F8F8",
"O c white",
"+ c #F3F3F3",
"@ c #E6E6E6",
"# c #D5D5D5",
"$ c #F1F1F1",
"% c #F4F4F4",
"& c #FBFBFB",
"* c #E7E7E7",
"= c #FDFDFD",
"- c black",
"; c #9C7548",
": c #A97C49",
"> c #EEEBF1",
", c #A77B48",
"< c #B18B58",
"1 c #A37B4A",
"2 c #A07746",
"3 c #AC7F4A",
"4 c #EDE2F4",
"5 c #A57A47",
"6 c #A57948",
"7 c #A57947",
"8 c #AB7E49",
"9 c #AB7E4A",
"0 c #B3844E",
"q c #B28651",
"w c #B38853",
"e c #A67A47",
"r c #F4FF6E",
"t c #8C2F2F",
"y c #F25151",
"u c #563C21",
"i c #3B9A55",
"p c #E9E9E9",
"a c gray93",
"s c #EEEEEE",
"d c gray77",
"f c gray81",
"g c gray55",
"h c #8D8D8D",
"j c gray54",
"k c #CBCBCB",
"l c #898989",
"z c #888888",
"x c #9F7746",
"c c gray56",
"v c #979797",
"b c gray88",
"n c #8E8E8E",
"m c #A2A2A2",
"M c #E1E1E1",
"N c #868686",
"B c LightGray",
"V c gray87",
"C c gray97",
"Z c gray99",
"A c gray89",
"S c #C1C1C1",
"D c gray63",
"F c #9D9D9D",
"G c gray72",
"H c #ECECEC",
"J c gray96",
"K c #F9F9F9",
"L c gray95",
"P c #DFDFDF",
/* pixels */
" .XXXXoOOO+@#X$%&OOOoXXX  XXXXX*",
"=OXXXX$%%%XXXXXX+%%%$XX == XXXXX",
" +$%&OO&%XX$&O%%$X$%%%XX . X+OOo",
"XX+&OOO=.X$oOOOOoX+=O.XXXXXX OO&",
"XXX$%%%+XX%OOOOOOXX+%XX .. XX%%$",
"... XXX+.X%OOOOOoXXXXX+=OO=.+XXX",
"OOOO%X+.=OX+.. XX%O%X%OOOOOO%$oO",
"OOOO%X%+ .XXXXXXXOO%XOOOOOOO%%OO",
"%&O&$ O=+XX+.------$X%OOOOOO%%OO",
"XXXXX.OO%X%--;;;;;;--XX.OOO%XX%O",
"XX%%$X. X--;;;::::;;;--$XXX+%%+X",
">+OOo%%%-;,<12,33,21<,;-$X$&OO&%",
"4.OOOOO-<56755677655765<-X%OOOOO",
"X.OOOO-;89,2,0<,,<0,2,98;-%OOOO%",
"%%+.=O-;<:2,qwe22ewq,2:<;-+X . X",
"OO X+%-rt;;;;;;;;;;;;;;ty-=+XX+.",
"OO= X -uuuuuuuuuuuuuuuuuu-O&.+&O",
"OOO..O-2iiuuuiiiiiiuuryy2-OOO%OO",
"..XX .-,yyuuutyyyytuuiyy,-..++&O",
" .. XX-22,,,,,,,,,,,,,,22-X .X$%",
"=OO=+X-22,,,,,,,,,,,,,,22-+=O XX",
"OOOO%X-uuuuuuuuuuuuuuuuuu-%OO.XX",
"X . pa-iiiuuutiiiituuryyy-p .X$$",
"XXXs$d-,uuuuuuttttuuuuuu,-fsX+&&",
"XXXsgh-,2,2,uuuuuuuu,2,2,-jsX%Oo",
"XXXkllz-;;xxxxxxxxxxxx;;-cgvX+XX",
"XX$bccll--;;;;;;;;;;;;--cnjm+&+X",
"XX%aMccccg------------NzlzBV.O=+",
"XX$C=ZASDlNzncggzNlccgFG#Has+O&$",
"%$XXXs$%%XXXJKK+L+L .XXXXsXXXXXX",
"OoXXX+oOO%XXXX$%&O&$XXXXXXXXXXXX",
"OOXXX+OOOOXXX.&OOOO&+XXXXXXXXXXP"
};
