/* XPM */
static char *result[] = {
/* columns rows colors chars-per-pixel */
"32 32 51 1 ",
"  c #F6F6F6",
". c gray98",
"X c #EFEFEF",
"o c #F8F8F8",
"O c white",
"+ c #F3F3F3",
"@ c #E6E6E6",
"# c #D5D5D5",
"$ c #F1F1F1",
"% c #F4F4F4",
"& c #FBFBFB",
"* c #E7E7E7",
"= c #FDFDFD",
"- c #EEEBF1",
"; c #EDE2F4",
": c black",
"> c #E45A02",
", c #E46515",
"< c #CF5B13",
"1 c #F8E198",
"2 c #F26B16",
"3 c #EBD590",
"4 c #939393",
"5 c #8E8E8E",
"6 c gray52",
"7 c gray57",
"8 c gray54",
"9 c gray55",
"0 c #8B8B8B",
"q c #838383",
"w c #898989",
"e c gray63",
"r c #959595",
"t c gray59",
"y c #929292",
"u c gray56",
"i c #EAEAEA",
"p c #909090",
"a c #9B9B9B",
"s c #D8D8D8",
"d c #E4E4E4",
"f c gray88",
"g c gray60",
"h c gray53",
"j c #868686",
"k c #979797",
"l c #E2E2E2",
"z c gray91",
"x c gray92",
"c c gray83",
"v c #DFDFDF",
/* pixels */
" .XXXXoOOO+@#X$%&OOOoXXX  XXXXX*",
"=OXXXX$%%%XXXXXX+%%%$XX == XXXXX",
" +$%&OO&%XX$&O%%$X$%%%XX . X+OOo",
"XX+&OOO=.X$oOOOOoX+=O.XXXXXX OO&",
"XXX$%%%+XX%OOOOOOXX+%XX .. XX%%$",
"... XXX+.X%OOOOOoXXXXX+=OO=.+XXX",
"OOOO%X+.=OX+.. XX%O%X%OOOOOO%$oO",
"OOOO%X%+ .XXXXXXXOO%XOOOOOOO%%OO",
"%&O&$ O=+XX+....+%%$X%OOOOOO%%OO",
"XXXXX.OO%X%OOOOOOXXXXXX.OOO%XX%O",
"XX%%$X. XXOOOOOOOOX+&O&$XXX+%%+X",
"-+OOo%%%$XOOOOOOOOX.OOOo$X$&OO&%",
";.OOOOOO&XoOOOOOO%X+&OOO%X%OOOOO",
"X.OOOOOOOXXXXOOO%XXXXXO%XX%OOOO%",
"%%+.=O XXX%%%%+X+OOOoXX+%%+X . X",
"OO X+%XX::::::=+.OOOOX+=OO=+XX+.",
"OO= X  :>>>>>>:$+OOOoX%OOOO&.+&O",
"OOO..O:>>,,,,>>:XXXXXX%OOOOOO%OO",
"..XX :>>,<<<,,>>:O&$XXX ....++&O",
" .. :>>,<<<<<,,>>:O&+XX ::: .X$%",
"=OO=:>,,<<<<<,,,,,:O%X+:111:O XX",
"OOOO:>,,,<<<<<<,,,,:::::111:O.XX",
"X . :>>,,,,<<<,,2221111113:4.X$$",
"XXXX:>>>,,,,,,,,,2,2111113:5X+&&",
"XXXX6:>>>,,,,,,,,:::::::111:X%Oo",
"XXX$78:>>>222::::906qw9:111:X+XX",
"XX$o@e8::::::qqq0rtyyyru:::5+&+X",
"XX%O&iep9wqq0ryyasdiifsg86h5.O=+",
"XX$oO&@tjjq6kliizx%OO.xs5q5c+O&$",
"%$XXXX$%%XXX ..++%+ .XXXXXXXXXXX",
"OoXXX+oOO%XXXX$%&O&$XXXXXXXXXXXX",
"OOXXX+OOOOXXX.&OOOO&+XXXXXXXXXXv"
};
