/* XPM */
static char *result[] = {
/* columns rows colors chars-per-pixel */
"32 32 118 2 ",
"   c #210707",
".  c #2A1214",
"X  c #351213",
"o  c #3B1213",
"O  c #3A1A1C",
"+  c #3D1F21",
"@  c #282F22",
"#  c #27332B",
"$  c #393427",
"%  c #3E3B2D",
"&  c #4F0E0F",
"*  c #510F0F",
"=  c #4B0F10",
"-  c #431214",
";  c #4B1415",
":  c #411719",
">  c #441819",
",  c #541314",
"<  c #5A1313",
"1  c #5E1718",
"2  c #56191A",
"3  c #65100F",
"4  c #601111",
"5  c #6D1415",
"6  c #651919",
"7  c #6C1A1B",
"8  c #761413",
"9  c #7C1515",
"0  c #731C1C",
"q  c #7E1919",
"w  c #44261E",
"e  c #4D221D",
"r  c #451F20",
"t  c #651F22",
"y  c #522C23",
"u  c #4C3225",
"i  c #4F3A2A",
"p  c #772122",
"a  c #763838",
"s  c #384B32",
"d  c #375037",
"f  c #335139",
"g  c #3E593D",
"h  c #37643F",
"j  c #555128",
"k  c #444D33",
"l  c #647234",
"z  c #19645E",
"x  c #1A6E5E",
"c  c #1D745E",
"v  c #396440",
"b  c #346C46",
"n  c #367146",
"m  c #37774A",
"M  c #377E4D",
"N  c #21765C",
"B  c #24785B",
"V  c #297A58",
"C  c #146665",
"Z  c #831615",
"A  c #821D1E",
"S  c #8C1918",
"D  c #941B1A",
"F  c #9C1E1D",
"G  c #A01F1F",
"H  c #8E201F",
"J  c #832828",
"K  c #9D2423",
"L  c #962B2B",
"P  c #A62121",
"I  c #AA2322",
"U  c #A22C2C",
"Y  c #B42524",
"T  c #BB2726",
"R  c #BD2827",
"E  c #B22F2D",
"W  c #BF2928",
"Q  c #A93938",
"!  c #B63E3D",
"~  c #C52A2A",
"^  c #CA2C2B",
"/  c #CB3332",
"(  c #C63C3B",
")  c #CD3A39",
"_  c #934342",
"`  c #A24040",
"'  c #A67B7A",
"]  c #CE4746",
"[  c #CD6765",
"{  c #CF6D6B",
"}  c #D46B69",
"|  c #D67B7A",
" . c #35804E",
".. c #3A814D",
"X. c #348555",
"o. c #3A8652",
"O. c #368D55",
"+. c #3A8E54",
"@. c #308458",
"#. c #3F9151",
"$. c #409152",
"%. c #6F9A49",
"&. c #779E45",
"*. c #719D49",
"=. c #76A047",
"-. c #7AA245",
";. c #76A048",
":. c #80A443",
">. c #84B299",
",. c #D28481",
"<. c #D58C88",
"1. c #D09997",
"2. c #CCA8A6",
"3. c #D9A9A6",
"4. c #D4AFAC",
"5. c #DECBC7",
"6. c #E5D3D0",
"7. c #E5DFDB",
/* pixels */
"O.O.O.O.O.O.O.O.O.O.O.O.O.O.O.O.#.#.O.O.O.O.O.O.O.O.O.O.O.O.O.O.",
"O.O.O.O.O.O.O.O.O.O.O.O.O.O.O.O.;.-.O.O.O.O.O.O.O.O.O.O.O.O.O.O.",
"O.O.O.O.O.O.O.#.#.O.O.+.;.+.O.O.#.;.;.O.O.O.O.O.O.O.O.O.O.O.O.O.",
"O.O.O.O.O.O.+.;.;.+.+.;.-.#.O.O.O.O.#.O.c c O.O.X.c c c O.O.O.O.",
"O.O.O.>.O.O.O.O.-.-.#.;.O.O.O.O.O.O.O.O.C *.N X.V -.-.N O.O.O.O.",
"O.O.O.O.O.O.O.O.+.+.O.+.O.O.O.O.O.O.O.c c +.*.N -.-.;.z O.O.O.O.",
"O.O.O.O.O.O.O.#.+.O.O.+.O.O.O.O.O.O.c %.*.B @.C #.;.@.C O.O.O.O.",
"O.O.O.O.O.O.O.;.;.+.O.O.O.O.O.O.O.O.c N +.O.C C O.+.C x O.O.O.O.",
"O.O.-.:.#.O.-.-.M e - - o s +.O.O.O.X - , , k M O.O.O.O.O.O.+.O.",
"O.O.#.-.;.+.+.o.u - J A < ; k n n i > 7 U L : y  .O.O.O.#.;.;.#.",
"O.O.O.O.O.O.o.w ; p 1.{ K 5 X h m X A I [ 3.' w @ O.O.O.-.-.O.O.",
"O.O.O.O.O.O.o > a 2.7.6.<.! o o - 6 R ^ ) } 4.` t   O.O.#.O.O.O.",
"O.O.O.O.O.+.o ; _ 5.| ] / ^ K 1 0 P ^ ^ ^ ) | E 7 X O.O.O.O.O.O.",
"O.O.O.O.O.O.> 0 Q ,./ ^ ^ ^ ~ H 0 ^ ^ ^ ^ ^ ~ I 7 X O.O.O.O.O.O.",
"O.O.O.O.O.O.: 0 I ( / ^ ^ ^ ^ ~ ~ ^ ^ ^ ^ ^ ~ Y 6 X O.O.O.O.O.O.",
"O.O.O.O.O...O 1 D T ~ ^ ^ ^ ^ ^ ^ ^ ^ ^ ^ ^ ~ P 1 X O.O.O.O.O.O.",
"O.O.O.O.O.O.O - Z G ~ ^ ^ ^ ^ ^ ^ ^ ^ ^ ^ ~ I D ; o O.O.O.O.O.O.",
"O.O.O.O.O.+.b + * 9 I R ^ ^ ^ ^ ^ ^ ^ ^ ~ I S < o h O.O.O.O.O.O.",
"O.O.O.O.O.+.-.d X 3 S I ^ ^ ^ ^ ^ ^ ^ ^ Y D 8 - o O.O.O.O.O.O.O.",
"O.O.O.O.+.&.-.o.f . & 8 G T ^ ^ ^ ^ R I F 7 X v O.O.O.O.O.O.O.O.",
"O.O.-.#.+.;.O.O.b # X ; Z F ^ ^ ^ ^ I F q 2 % n O.O.O.+.-.+.O.O.",
"O.O.:.-.O.+.O.O.B %.. X & 3 Y ~ ~ Y Z < ; o X.+.O.O.#.;.-.+.O.O.",
"O.O.+.;.O.O.O.O.c c +.X X & Z P I D < O o O.&.:.;.#.#.;.+.+.:.-.",
"O.O.O.#.O.O.O.O.O.O.+...$ X < 8 S 9 o i O.O.$.-.-.-.O.+.+.;.-.$.",
"O.O.O.O.O.O.@.N B x O.O.n h X & ; - g m O.O.O.O.O.O.O.O.O.O.O.O.",
"O.O.O.c c c N %.%.C O.O.O.O.j o o o o.O.O.O.O.O.O.O.O.O.O.O.O.O.",
"O.O.N *.;.#.C *.@.C O.O.+.&.-.l o h O.O.O.O.O.O.O.O.O.O.O.O.O.O.",
"O.O.c N #.-.C +.C c O.O.O.+.#.O.O.o.O.O.O.O.O.O.O.O.O.O.O.O.O.O.",
"O.O.O.O.O.O.O.O.O.O.O.O.O.O.O.O.O.O.O.O.O.O.O.O.O.O.O.O.O.O.#.O.",
"O.O.O.O.O.O.O.O.O.O.O.O.O.#.O.O.O.O.O.O.O.O.O.O.O.O.O.O.O.O.O.O.",
"O.O.O.O.O.O.O.O.O.O.O.O.O.O.O.O.O.O.O.O.O.O.O.O.O.O.O.O.O.O.O.O.",
"O.O.O.O.O.O.O.O.O.O.O.O.O.O.O.O.O.O.O.O.O.O.O.O.O.O.O.O.O.O.O.O."
};
