/* XPM */
static char *result[] = {
/* columns rows colors chars-per-pixel */
"32 32 66 1 ",
"  c #F6F6F6",
". c gray98",
"X c #EFEFEF",
"o c #F8F8F8",
"O c white",
"+ c #F3F3F3",
"@ c #E6E6E6",
"# c #D5D5D5",
"$ c #F1F1F1",
"% c #F4F4F4",
"& c #FBFBFB",
"* c #E7E7E7",
"= c #FDFDFD",
"- c #EEEBF1",
"; c #EDE2F4",
": c black",
"> c #8E550E",
", c #FF000F",
"< c #CC7A14",
"1 c #EEEEEE",
"2 c #E9E9E9",
"3 c #D2D2D2",
"4 c #CACACA",
"5 c gray62",
"6 c #979797",
"7 c #9A9A9A",
"8 c gray76",
"9 c #E4E4E4",
"0 c #B7B7B7",
"q c gray59",
"w c #8D8D8D",
"e c gray55",
"r c #8E8E8E",
"t c gray53",
"y c #848484",
"u c #8B8B8B",
"i c #A0A0A0",
"p c gray87",
"a c gray67",
"s c #9B9B9B",
"d c gray56",
"f c gray54",
"g c #868686",
"h c #888888",
"j c #898989",
"k c gray57",
"l c #A9A9A9",
"z c #C1C1C1",
"x c gray93",
"c c gray92",
"v c #DADADA",
"b c #A7A7A7",
"n c gray61",
"m c gray77",
"M c gray89",
"N c gainsboro",
"B c gray79",
"V c #C5C5C5",
"C c #C6C6C6",
"Z c #CBCBCB",
"A c gray81",
"S c #CECECE",
"D c #C8C8C8",
"F c gray80",
"G c gray85",
"H c #DFDFDF",
/* pixels */
" .XXXXoOOO+@#X$%&OOOoXXX  XXXXX*",
"=OXXXX$%%%XXXXXX+%%%$XX == XXXXX",
" +$%&OO&%XX$&O%%$X$%%%XX . X+OOo",
"XX+&OOO=.X$oOOOOoX+=O.XXXXXX OO&",
"XXX$%%%+XX%OOOOOOXX+%XX .. XX%%$",
"... XXX+.X%OOOOOoXXXXX+=OO=.+XXX",
"OOOO%X+.=OX+.. XX%O%X%OOOOOO%$oO",
"OOOO%X%+ .XXXXXXXOO%XOOOOOOO%%OO",
"%&O&$ O=+XX+....+%%$X%OOOOOO%%OO",
"XXXXX.OO%X%OOOOOOXXXXXX.OOO%XX%O",
"XX%%$X. XXOOOOOOOOX+&O&$XXX+%%+X",
"-+OOo%%%$XOOOOOOOOX.OOOo$X$&OO&%",
";.OOOOOO&XoOOOOOO%X+&OOO%X%OOOOO",
"X.OOOOOOOXXXXOOO%XXXXXO%XX%OOOO%",
"%%+.=O XXX%%%%+X+OOOoXX+%%+X . X",
"OO X+%XXX:::::=+.OOOOX+=OO=+XX+.",
"OO=:X  X:>>>>>:$+OO::::OOOO&:+&O",
"OO:,::.X:><<<>>::::>>>>::O::,:OO",
"..:,O,::>><<<>>>>>>><<>>>:OO,:&O",
" ..:O,O:><<<<>><<><<<<<<>,OO:X$%",
"=OO:O,OOO,<<<><<><<<<<<OO,OO: XX",
"OOOO:,,,,,,,,,,,,,,,,,,,,,O:O.XX",
"X . :,OOO,OOO,OOO,OOO,OOO,O:.X$$",
"XXXX:,,,,,,,,,,,,,,,,,,,,,O:X+&&",
"XXX12:,OO,OOO,OOO,OOO,OOO,:XX%Oo",
"X@345:,,,,,,,,,,,,,,,,,,,:6789XX",
"X0qwee:::::::::::::::::::rtyuipX",
"X4asweeedettfwtgtthwwgtjfdkslz%+",
"XxcvbdwejjghrdeehgjddeggtnmM+O&$",
"%$XX*N4BBVCVZASDBBDFSVCVCG*XXXXX",
"OoXXX+oOO%XXXX$%&O&$XXXXXXXXXXXX",
"OOXXX+OOOOXXX.&OOOO&+XXXXXXXXXXH"
};
