/* XPM */
static char *result[] = {
/* columns rows colors chars-per-pixel */
"32 32 39 1 ",
"  c #F6F6F6",
". c gray98",
"X c #EFEFEF",
"o c #F8F8F8",
"O c white",
"+ c #F3F3F3",
"@ c #E6E6E6",
"# c #D5D5D5",
"$ c #F1F1F1",
"% c #F4F4F4",
"& c #FBFBFB",
"* c #E7E7E7",
"= c #FDFDFD",
"- c black",
"; c #010101",
": c #020202",
"> c gray97",
", c #EEEBF1",
"< c #EDE2F4",
"1 c gray6",
"2 c #060606",
"3 c #070707",
"4 c gray9",
"5 c gray10",
"6 c #0B0B0B",
"7 c #040404",
"8 c gray5",
"9 c #0E0E0E",
"0 c #EAEAEA",
"q c #101010",
"w c #C8C8C8",
"e c gray99",
"r c gray1",
"t c gainsboro",
"y c gray94",
"u c #D0D0D0",
"i c #E4E4E4",
"p c gray93",
"a c #DFDFDF",
/* pixels */
" .XXXXoOOO+@#X$%&OOOoXXX  XXXXX*",
"=OXXXX$%%%XXXXXX+%%%$XX == XXXXX",
" +$%&OO&%XX$&O%%$X$%%%XX . X+OOo",
"XX+&OOO=.X$oOOOOoX+=O.XXXXXX OO&",
"XXX$%%%+XX%OOOOOOXX+%XX .. XX%%$",
"... X--+------O--XXXXX+=OO=.+XXX",
"OOOO;---OOOOO:-O-%O%X%OOOOOO%$oO",
"OOOO-OO-OOOOO=-O-OO%XOOOOOOO%%OO",
"%&O&-OOOOOOOOOOO--%$X%OOOOOO%%OO",
"XXXX-OOOOOOOOOOOO--XXXX.OOO--X%O",
"XX%--OO--OO-;OOOOO--&O&$XX- >-+X",
",+O-OOO-OOO-OOOOOO --OOo$X-OO-&%",
"<.O-OOOOOOO&OOOOOOOO--;O%1-OO-OO",
"X.O-OOOO---OOOOOOOOOOO2---;OO-O%",
"%%+-O--O3-;O--OOOOOOOOOOOOOOO- X",
"OO -OO-OO-O&-OOOOOOOOOOOOOOOO-+.",
"OO=-OO>-----OOOOOOOOOOOOOOOOO-&O",
"OOO-OOOOOOOOOOOOOOOOOOOOOOOOO-OO",
"..X-OOOOOOOOOOOOOOOOOOOOOOOOO-&O",
" ..-OOOOOOOOOOOOOOOOOOOOOOOOO-$%",
"=OO-OOOOOOOOOOOOOOOOOOOOOOOOO-XX",
"OOO-OOOOOOOOOOOOOOOOOOOOOOOO-4XX",
"X .-OOOOOOOOOOOOOOOOOOOOOOO--X$$",
"XXX-;OOOOOOOOOOOOOOOOOOOOOO-X+&&",
"XXXX-OOOOOOOOOOOOOOOOO&OOOO-X%Oo",
"XXX$-OO5;-OOO----6OOOO--OOO-X+XX",
"XX$o-OO-7-8OO-XX8-OOO9;:OOO-+&+X",
"XX%O-OO-O::O>-XXX-+OO- -OO-0.O=+",
"XX$o-q;;%w-Oe3..+;rO--X-0:-t+O&$",
"%$XXy-;%%X--;..++u-;-XX-;-iXXXXX",
"OoXXX::OO%8-0X$%&O;-XXXp-1XXXXXX",
"OOXXX+OOOOXXX.&OOOO&+XXXXXXXXXXa"
};
