/* XPM */
static char *result[] = {
/* columns rows colors chars-per-pixel */
"32 32 39 1 ",
"  c #E7E7E7",
". c #EFEFEF",
"X c #F6F6F6",
"o c #F8F8F8",
"O c white",
"+ c #FBFBFB",
"@ c #F4F4F4",
"# c #F1F1F1",
"$ c #D5D5D5",
"% c #E6E6E6",
"& c #F3F3F3",
"* c gray98",
"= c #FDFDFD",
"- c black",
"; c #020202",
": c #010101",
"> c gray97",
", c #EEEBF1",
"< c gray6",
"1 c #EDE2F4",
"2 c #060606",
"3 c #070707",
"4 c gray9",
"5 c #0B0B0B",
"6 c gray10",
"7 c #0E0E0E",
"8 c gray5",
"9 c #040404",
"0 c #EAEAEA",
"q c gainsboro",
"w c gray1",
"e c gray99",
"r c #C8C8C8",
"t c #101010",
"y c #E4E4E4",
"u c #D0D0D0",
"i c gray94",
"p c gray93",
"a c #DFDFDF",
/* pixels */
" .....XX...oOOO+@#.$%&OOOo....*X",
".....X==X..#@@@&......@@@#....O=",
"oOO&.X*X..@@@#.#@@O+#..@+OO+@#&X",
"+OOX......*O=&.oOOOOo#.*=OOO+&..",
"#@@..X**X..@&..OOOOOO@..&@@@#...",
"...&*=OO=&.....--O------&--.X***",
"Oo#@OOOOOO@.@O@-O-;OOOOO---:OOOO",
"OO@@OOOOOOO.@OO-O-=OOOOO-OO-OOOO",
"OO@@OOOOOO@.#@--OOOOOOOOOOO-+O+@",
"O@.--OOO*....--OOOOOOOOOOOO-....",
".&->X-..#+O+--OOOOO:-OO--OO--@..",
"@+-OO-.#oOO--XOOOOOO-OOO-OOO-O&,",
"OO-OO-<@O:--OOOOOOOO+OOOOOOO-O*1",
"@O-OO:---2OOOOOOOOOOO---OOOO-O*.",
".X-OOOOOOOOOOOOOOO--O:-3O--O-&@@",
"*&-OOOOOOOOOOOOOOOO-+O-OO-OO-XOO",
"O+-OOOOOOOOOOOOOOOOO----->OO-=OO",
"OO-OOOOOOOOOOOOOOOOOOOOOOOOO-OOO",
"O+-OOOOOOOOOOOOOOOOOOOOOOOOO-.**",
"@#-OOOOOOOOOOOOOOOOOOOOOOOOO-**X",
"..-OOOOOOOOOOOOOOOOOOOOOOOOO-OO=",
"..4-OOOOOOOOOOOOOOOOOOOOOOOO-OOO",
"##.--OOOOOOOOOOOOOOOOOOOOOOO-*X.",
"++&.-OOOOOOOOOOOOOOOOOOOOOO:-...",
"oO@.-OOOO+OOOOOOOOOOOOOOOOO-....",
"..&.-OOO--OOOO5----OOO-:6OO-#...",
".&+&-OOO;:7OOO-8..-OO8-9-OO-o#..",
"&=O*0-OO-X-OO&-...->O;;O-OO-O@..",
"#+O&q-;0-.--Ow:&**3eO-r@::t-o#..",
".....y-:-..-:-u&&**:--.@@:-i..#@",
"......<-p...-:O+@#.0-8@OO;;...oO",
"a..........&+OOOO+*...OOOO&...OO"
};
