/* XPM */
static char *result[] = {
/* columns rows colors chars-per-pixel */
"32 32 22 1 ",
"  c #F6F6F6",
". c gray98",
"X c #EFEFEF",
"o c #F8F8F8",
"O c white",
"+ c #F3F3F3",
"@ c #E6E6E6",
"# c #D5D5D5",
"$ c #F1F1F1",
"% c #BAB0B0",
"& c #E7E7E7",
"* c #FDFDFD",
"= c #F4F4F4",
"- c #8B8484",
"; c #584B44",
": c #FBFBFB",
"> c #6D6666",
", c #35A948",
"< c #9EDF8A",
"1 c #1B945F",
"2 c #EEEBF1",
"3 c #0C896D",
/* pixels */
" .XXXXoOOO+@#X$%%%OOoXXX  XXXXX&",
"*OXXXX$===--%;;---%;;XX ** XXXXX",
" +$=:OO%;---%;;---%;--%; . X+OOo",
"XX+:O;--%;>--%;---;;--%;;-XX OO:",
"XXX$;;>--;;>-%;>>>;--%;;--%XX==$",
"...-%;;>-%;;>,,,,,>-%;----%;+XXX",
"OO;---%;--,,<<<<<<<,,;>-%%;-%$oO",
"OO;>>-%,,<<<,,,,,,,<<<,%;;---%OO",
"=;;;;>;,<,,,1111111,,,<,,>---;OO",
"X;;-%;<<,111,,,,,,,111,<<>--;;=O",
"X;>--%,,11,,<<<<<<<,,11,,<>;;-%X",
"2;>>--,11,<<,,,,,,,<<,11,,;---%=",
"--;;;;1,,<,,,11111,,,<,,1,>---;O",
">--;;11,<,,111111111,,<,11,>;;%%",
";>-%%1,<,1111,,,,,1111,<,11;---%",
";;>-%,<,,111,<<<<<,111,,<,1>---;",
";;;;;,<,111,<,,,,,<,111,<,1>--;;",
">--%;<,,11,<,,111,,<,11,,<,;;;%%",
";---%<,11,<,,13131,,<,11,<,>---%",
";>--%<,11,<,131,131,<,11,<,>---%",
";>;>;<,11,<,11,<,11,<,11,<,;>>;;",
";;;;;<,11,<,131,131,<,11,<,-;;%%",
"--%%;<,11,<,,13131,,<,11,<,----%",
">---%<,,11,<,,111,,<,11,,<,>>-;;",
">>-;;,<,111,<,,,,,<,111,<,1;;;;%",
";>;;;,<,,111,<<<<<,111,,<,1--%;;",
";;;%%1,<,1111,,,,,1111,<,11---%;",
";---%11,<,,111111111,,<,11,>---%",
";----,1,,<,,,11111,,,<,,1,<;>-;;",
";;;;;,,11,<<,,,,,,,<<,11,,<;;;%%",
"---%;<,,11,,<<<<<<<,,11,,<,>---%",
">>--;,<<,111,,,,,,,111,<<,1;>--;"
};
