/* XPM */
static char *result[] = {
/* columns rows colors chars-per-pixel */
"32 32 156 2 ",
"   c #040000",
".  c #0A0000",
"X  c #140000",
"o  c #1A0000",
"O  c #0B170E",
"+  c #0D190F",
"@  c #0E1D12",
"#  c #260000",
"$  c #2D0000",
"%  c #350000",
"&  c #3C0000",
"*  c #0F2013",
"=  c #112415",
"-  c #132C1A",
";  c #16321E",
":  c #173721",
">  c #1A3C25",
",  c #430000",
"<  c #4D0000",
"1  c #530000",
"2  c #5B0000",
"3  c #650000",
"4  c #6C0000",
"5  c #740000",
"6  c #7A0000",
"7  c #7C1410",
"8  c #6F221B",
"9  c #792717",
"0  c #752C1B",
"q  c #6B3C24",
"w  c #763922",
"e  c #653436",
"r  c #1B4127",
"t  c #1B4228",
"y  c #235735",
"u  c #245B37",
"i  c #255E39",
"p  c #5C4A30",
"a  c #5C5231",
"s  c #674127",
"d  c #6A4126",
"f  c #6A472B",
"g  c #62492C",
"h  c #7A4026",
"j  c #754329",
"k  c #78472B",
"l  c #73492C",
"z  c #644E30",
"x  c #645F39",
"c  c #745936",
"v  c #5B613B",
"b  c #52623B",
"n  c #61613B",
"m  c #325F4C",
"M  c #255C5B",
"N  c #19645E",
"B  c #1A6E5E",
"V  c #1D735E",
"C  c #2A6B41",
"Z  c #2C7043",
"A  c #2F7949",
"S  c #336552",
"D  c #287357",
"F  c #21765C",
"G  c #24785B",
"H  c #297A58",
"J  c #156765",
"K  c #4A5A45",
"L  c #596C42",
"P  c #457246",
"I  c #497445",
"U  c #477A46",
"Y  c #4E7A47",
"T  c #437C4A",
"R  c #4C7A4A",
"E  c #537544",
"W  c #850000",
"Q  c #8C0101",
"!  c #8F0D05",
"~  c #8A0D08",
"^  c #930100",
"/  c #9B0100",
"(  c #85130C",
")  c #8D130C",
"_  c #81190F",
"`  c #92170E",
"'  c #9F160D",
"]  c #9D190F",
"[  c #801817",
"{  c #971C11",
"}  c #9A1914",
"|  c #A40100",
" . c #AC0201",
".. c #AD0B06",
"X. c #A00D08",
"o. c #AD0E0B",
"O. c #B40000",
"+. c #BC0101",
"@. c #B80905",
"#. c #B40E08",
"$. c #B30A04",
"%. c #AA150D",
"&. c #A1190F",
"*. c #AA180F",
"=. c #A2140C",
"-. c #B3170C",
";. c #A11F13",
":. c #AA1A10",
">. c #8B200E",
",. c #8E2617",
"<. c #8C2A19",
"1. c #912315",
"2. c #922919",
"3. c #9B2B19",
"4. c #83341F",
"5. c #873A1A",
"6. c #A8200E",
"7. c #A22114",
"8. c #A82215",
"9. c #A32919",
"0. c #B72013",
"q. c #A4311D",
"w. c #C30100",
"e. c #CC0000",
"r. c #C10A06",
"t. c #D40000",
"y. c #DB0000",
"u. c #CE130C",
"i. c #E20000",
"p. c #84411E",
"a. c #904127",
"s. c #86612B",
"d. c #8C6A2D",
"f. c #817D3B",
"g. c #7D923E",
"h. c #32824F",
"j. c #3E834F",
"k. c #3E884F",
"l. c #338653",
"z. c #3D8651",
"x. c #368D55",
"c. c #3B8E53",
"v. c #308458",
"b. c #3F9151",
"n. c #43854E",
"m. c #48804B",
"M. c #418F51",
"N. c #748840",
"B. c #6F9A49",
"V. c #779E45",
"C. c #719C49",
"Z. c #76A047",
"A. c #7AA245",
"S. c #76A148",
"D. c #80933F",
"F. c #80A342",
/* pixels */
"x.x.x.x.x.x.x.x.x.R q.0.8.+.w.w.3.m.x.x.x.x.x.x.x.x.x.x.x.x.x.x.",
"x.x.x.x.x.x.x.x.z.a.c z.n k +.+.w.-.g j.x.x.x.x.x.x.x.x.x.x.x.x.",
"x.x.x.x.x.x.x.b.x.x.x.z.d.4.O./ O.t.X.d P v.x.x.x.x.x.x.x.x.x.x.",
"x.x.x.x.x.x.c.S.S.b.b.s.-.| ^ Q W +.t./ 8 m x.x.x.F V V x.x.x.x.",
"x.x.x.x.x.x.x.x.A.A.z.6.| W 6 6 5 W t.+.Q p.D x.H V.A.F x.x.x.x.",
"x.x.x.x.x.x.x.x.m.M.T  .Q 6 5 5 4 3 / i.Q ~ N.G A.F.V.J x.x.x.x.",
"x.x.x.x.x.x.x.b.Y z.q ^ / / 5 2 1 < 2 e.^ ^ p M c.S.v.J x.x.x.x.",
"x.x.x.x.x.x.x.S.Z.I ~ O.i.| 5 1 < , & O.6 / 7 e x.c.J B x.x.x.x.",
"x.x.A.F.b.x.S.A.x.q | y.^ 5 2 < , & & 3 4 6 ` } x x.x.x.x.c.c.x.",
"x.x.b.A.S.b.b.x.U [ +.e.6 5 1 < , & $ # 2 6 ) ..l x.x.x.c.S.S.b.",
"x.x.x.x.x.x.x.x.w ` t./ 5 3 < < & % o . 1 6 Q O.h x.x.x.A.Z.x.x.",
"x.x.x.x.x.x.x.x.,.&.i.6 5 3 < , & $ o   # 4 ^  .4.x.x.x.b.c.x.x.",
"x.x.x.x.x.x.x.x.<.u.| 5 5 3 < , & # o     4 | O.,.x.x.x.x.x.x.x.",
"x.x.x.x.x.x.x.v ' y.W 5 5 3 < , & # o     5 |  .,.x.x.x.x.x.x.x.",
"x.x.x.x.x.x.x.<.=.+.6 5 | 3 < , & $ o   X 5 | ..{ x.x.x.x.x.x.x.",
"x.x.x.x.x.x.x.2.%./ 6 5  .3 < , & # X   o 6 +...,.x.x.x.x.x.x.x.",
"x.x.x.x.x.x.x.<.7./ 6 5 | 3 < , & % X   X 6 O...j x.x.x.x.x.x.x.",
"x.x.x.x.x.x.x.1.#./ 6 5 ^ 3 < , & & X . & Q e.] v x.x.x.x.x.x.x.",
"x.x.x.x.x.b.A.1.r./ Q 5 5 3 < , & & $ X 3 +.w.<.x.x.x.x.x.x.x.x.",
"x.x.x.x.x.S.A.4.@.w Q ^ | 4 < , & & & # ^ e./ f x.x.x.x.x.x.x.x.",
"x.x.A.b.b.S.x.n.-.K 7 / t.Q 1 < < & , 1 w.| 0 k.x.x.x.x.A.c.x.x.",
"x.x.F.A.x.x.x.x.o.f.` Q t.O.2 < < < , 3  .^ g x.x.x.b.S.A.b.x.x.",
"x.x.b.S.x.x.x.x.} S 0 Q | e.6 1 < 1 3 4 ^ [ g.F.S.b.b.S.x.b.A.A.",
"x.x.x.b.x.x.x.x.a x.b ( ^ e.| 5 3 3 6 W Q s M.D.F.A.x.x.b.S.A.M.",
"x.x.x.x.x.x.v.F F B x.a Q  .t.| 6 W Q ^ 0 I R 2.z.x.x.x.x.x.x.x.",
"x.x.x.F V V G C.B.N x.T 0 ^ | w.| ^ Q ( l L 9.*.x.x.x.x.x.x.x.x.",
"x.x.V B.S.b.J C.v.J x.x.R 5.! $.+.O.' ,.#.*.} v x.x.x.x.x.x.x.x.",
"x.x.V F M.S.J x.J V x.x.x.c.n.E :.w.w.w.-.x c.x.x.x.x.x.x.x.x.x.",
"x.x.x.x.x.x.x.x.x.x.x.x.x.x.x.x.x.x.x.x.x.x.x.x.x.x.x.x.x.x.x.x.",
"x.x.x.x.x.x.x.x.x.x.x.x.Z y > - - - ; t u l.x.x.b.x.x.x.x.x.x.x.",
"x.x.x.x.x.x.x.x.x.x.l.i > = @ @ + + @ = ; t A x.x.x.x.x.x.x.x.x.",
"x.x.x.x.x.x.x.x.x.x.c.h.C r : @ @ = ; : i A x.x.x.x.x.x.x.x.x.x."
};
