/* XPM */
static char *result[] = {
/* columns rows colors chars-per-pixel */
"32 32 50 1 ",
"  c #54231F",
". c #59241E",
"X c #552621",
"o c #582721",
"O c #562922",
"+ c #5B2A22",
"@ c #612B26",
"# c #632F29",
"$ c #65312C",
"% c #6B332E",
"& c #6E3530",
"* c #723533",
"= c #723935",
"- c #7A3937",
"; c #763B38",
": c #7B3D3A",
"> c #7C413C",
", c #7E4340",
"< c #81413E",
"1 c #844442",
"2 c #894746",
"3 c #844845",
"4 c #8B4847",
"5 c #87494A",
"6 c #8C4C4B",
"7 c #914F4E",
"8 c #8F504D",
"9 c #8F5452",
"0 c #935252",
"q c #945854",
"w c #9C5D5D",
"e c #A05E5F",
"r c #9C615E",
"t c #9C6460",
"y c #A26365",
"u c #A86666",
"i c #A46966",
"p c #A4676A",
"a c #A86769",
"s c #A56A6B",
"d c #A96D6C",
"f c #A96F70",
"g c #AD7576",
"h c #B17475",
"j c #B17579",
"k c #B47A7C",
"l c #B78184",
"z c #BE8386",
"x c #BC8388",
"c c #C08384",
/* pixels */
"yyyyyyyyys9XOX,afssfadsssfsfpfpf",
"yyyuyyyyyyw,O#:yyyyyyyuykj5ypyyy",
"1311123111ydO;111111121<ha 12211",
"111111hxl5ypX:111111111111111111",
"111111707335.-3<111111111<111112",
"1162-1111163X:1311111111150--111",
"11f4o11111rio:331111111117z %111",
"1121:111114> :33111<111110z %112",
"2311311133;$X$:3&-11113355u&:3<3",
";:::----::$Xoo@:X%;:>>>>:::>>;-:",
"ooOoo.oo...ooo.+ooXXXOOOooooo.. ",
"ssssssassssssaspdsqXOO+rssssssys",
"yyyyyyyalsyyytyyyyy6$#=wuyyyyyyy",
"3<111110k8311111110c=&33111<1113",
"31,11111,1132111110z=&1<1113yh13",
"11<11111,1111111130x*&1111134713",
"1111111111111111117x=&111111,111",
"1<41:>3111111111110z=&3344115113",
"31u6##>311111111110c=&31pu111113",
"12e6%*>,113:*%;11127#@&,ww<11111",
":>:>>;>>:::=XX@:;-*O.OO;-;-;;::>",
"+++++oO+++++oo+@@++oO.X++@+o+++O",
"isssss$OOO,ssspasaassssssssssdad",
"kjkjkk,&O+5jjjjjjhkxgdjjjjjjgjjj",
",31111hd+<111111117z-%111311<111",
"<31111hd+:11111111111111<3111111",
"5y411<eq+<1111111111111115yy2*11",
"8h7113<:o,1111111111111116hh5%12",
",111112>o151111111111111,1111111",
"1113111;o11111111111111111,11111",
"11*-11=$o%:111<1111111<*:1111111",
"<:@%>>$ ..%<-<<:<:<-:<-o-<:<<<<<"
};
