/* XPM */
static char *result[] = {
/* columns rows colors chars-per-pixel */
"32 32 87 1 ",
"  c #368D55",
". c #3B8F53",
"X c #7AA345",
"o c #7AA245",
"O c #368D56",
"+ c #3A8F53",
"@ c #3B8F54",
"# c #75A048",
"$ c #75A047",
"% c #348B56",
"& c #76A047",
"* c #1D745D",
"= c #20775D",
"- c #3B8F55",
"; c #19645D",
": c #729C48",
"> c #24785B",
", c #328957",
"< c #297A58",
"1 c #79A046",
"2 c #78A045",
"3 c #21745B",
"4 c #378D55",
"5 c #1F765D",
"6 c #1D725E",
"7 c #388C55",
"8 c #709C49",
"9 c #24785C",
"0 c #80A443",
"q c #779E45",
"w c #1A645D",
"e c #22755C",
"r c #719D4A",
"t c #739F48",
"y c #318457",
"u c #146664",
"i c #308458",
"p c #156765",
"a c #1C725E",
"s c #22765C",
"d c #146665",
"f c #116366",
"g c #156764",
"h c #1A6E5E",
"j c #7BA245",
"k c #80A442",
"l c #7AA246",
"z c #3F9151",
"x c #76A148",
"c c #1D745E",
"v c #328956",
"b c #1E745D",
"n c #328756",
"m c #338957",
"M c #7BA345",
"N c #23785B",
"B c #719C49",
"V c #739E48",
"C c #398D55",
"Z c #1B645D",
"A c #6F9A49",
"S c #719D49",
"D c #24775C",
"F c #1E745E",
"G c #3A8F54",
"H c #1B645C",
"J c #719C48",
"K c #338956",
"L c #176661",
"P c #146766",
"I c #7FA443",
"U c #348955",
"Y c #3A8E53",
"T c #338955",
"R c #409152",
"E c #21765C",
"W c #1B705E",
"Q c #19655F",
"! c #77A148",
"~ c #18635D",
"^ c #146765",
"/ c #3A8F52",
"( c #3F9051",
") c #77A047",
"_ c #388A54",
"` c #156663",
"' c #196E5E",
/* pixels */
"                ..              ",
"                XoO             ",
"       ++  +o@  .#$+%%   %%%    ",
"      @&&@@&o@   +@ **O %=**    ",
"        oo-&       %;:>,<123    ",
"        @@4+      %5678910qw    ",
"       ++         ert9yu.#ip    ",
"      @&&@        as+%df +gh    ",
"  jk@ lo                     @. ",
"  zjx@@@                    .#$+",
"                            ooO ",
"                            ..  ",
"                                ",
"                                ",
"                                ",
"                                ",
"                                ",
"                                ",
"     @o.      %%                ",
"    +#o.      c*                ",
"  jz+#  v9sbn9kk>m         @o@  ",
"  0M +  NBVCZAkkSD        +xo@  ",
"  +x    cFGxHJKLPu    j0jz+x4@IM",
"   @    %% @UY TKK    Rjko @+#jz",
"   %%%,>EWO   ..@               ",
"  %5ccNBAQ   OoXx@              ",
"  er!z~:y^  /#XX                ",
"  as()P_`'O  +..                ",
"                                ",
"                                ",
"                                ",
"                                "
};
