/* XPM */
static char *result[] = {
/* columns rows colors chars-per-pixel */
"32 32 16 1 ",
"  c #F6F6F6",
". c gray98",
"X c #EFEFEF",
"o c #F8F8F8",
"O c white",
"+ c #F3F3F3",
"@ c #E6E6E6",
"# c #D5D5D5",
"$ c #F1F1F1",
"% c #F4F4F4",
"& c #FBFBFB",
"* c #E7E7E7",
"= c #FDFDFD",
"- c #EEEBF1",
"; c #EDE2F4",
": c #DFDFDF",
/* pixels */
" .XXXXoOOO+@#X$%&OOOoXXX  XXXXX*",
"=OXXXX$%%%XXXXXX+%%%$XX == XXXXX",
" +$%&OO&%XX$&O%%$X$%%%XX . X+OOo",
"XX+&OOO=.X$oOOOOoX+=O.XXXXXX OO&",
"XXX$%%%+XX%OOOOOOXX+%XX .. XX%%$",
"... XXX+.X%OOOOOoXXXXX+=OO=.+XXX",
"OOOO%X+.=OX+.. XX%O%X%OOOOOO%$oO",
"OOOO%X%+ .XXXXXXXOO%XOOOOOOO%%OO",
"%&O&$ O=+XX+....+%%$X%OOOOOO%%OO",
"XXXXX.OO%X%OOOOOOXXXXXX.OOO%XX%O",
"XX%%$X. XXOOOOOOOOX+&O&$XXX+%%+X",
"-+OOo%%%$XOOOOOOOOX.OOOo$X$&OO&%",
";.OOOOOO&XoOOOOOO%X+&OOO%X%OOOOO",
"X.OOOOOOOXXXXOOO%XXXXXO%XX%OOOO%",
"%%+.=O XXX%%%%+X+OOOoXX+%%+X . X",
"OO X+%XXX.OOOO=+.OOOOX+=OO=+XX+.",
"OO= X  X OOOOO&$+OOOoX%OOOO&.+&O",
"OOO..O.XXOOOOXXXXXXXXX%OOOOOO%OO",
"..XX .X$%XXXXXoOOO&$XXX ....++&O",
" .. XX+&O.XXX.OOOOO&+XX .XX .X$%",
"=OO=+X&OOOXX OOOOOOO%X+=O +=O XX",
"OOOO%X%OOXXX.OOOOOO%XOX.OX%OO.XX",
"X . X+%%%XXX .OOOO X.O XXXX .X$$",
"XXXX =OOO.XX .%%%%XX+%+..XXXX+&&",
"XXXX+&OOOO +=O XX. XXX&OO XXX%Oo",
"XXX$%%+...X+..X =O=+X.OOOO.XX+XX",
"XX$oOO%%%XXXXXXX . XXX.=O= X+&+X",
"XX%OOOOOO.XX .XXXX+..XX+%+XX.O=+",
"XX$oOOO&%%X+=O..+X%OO.XXXXXX+O&$",
"%$XXXX$%%XXX ..++%+ .XXXXXXXXXXX",
"OoXXX+oOO%XXXX$%&O&$XXXXXXXXXXXX",
"OOXXX+OOOOXXX.&OOOO&+XXXXXXXXXX:"
};
