/* XPM */
static char *result[] = {
/* columns rows colors chars-per-pixel */
"32 32 51 1 ",
"  c #368D55",
". c #3B8F53",
"X c black",
"o c #3A8F53",
"O c white",
"+ c #348B56",
"@ c #3B8F54",
"# c #76A047",
"$ c #20775D",
"% c #1D745D",
"& c #328957",
"* c #297A58",
"= c #79A046",
"- c #78A045",
"; c #21745B",
": c #80A443",
"> c #779E45",
", c #1A645D",
"< c #75A048",
"1 c #308458",
"2 c #156765",
"3 c #156764",
"4 c #1A6E5E",
"5 c #7BA245",
"6 c #80A442",
"7 c #7AA246",
"8 c #3F9151",
"9 c #76A148",
"0 c #75A047",
"q c #7AA245",
"w c #368D56",
"e c #4782C9",
"r c #BDC0C9",
"t c #7BA345",
"y c #378D55",
"u c #7FA443",
"i c #24785B",
"p c #1F765D",
"a c #1D745E",
"s c #23785B",
"d c #22755C",
"f c #719D4A",
"g c #77A148",
"h c #18635D",
"j c #7AA345",
"k c #1C725E",
"l c #22765C",
"z c #3F9051",
"x c #77A047",
"c c #146766",
"v c #388A54",
/* pixels */
"                ..              ",
"           XXXXXXXXX            ",
"       ooXXOOOOOOOOOXX   +++    ",
"      @#XOOOOOOOOOOOOOX +$%%    ",
"        XOOOOOOOOOOOOOX&*=-;    ",
"       XOOOOOOOOOOOOOOOX=:>,    ",
"       XOOXXXOOOOOXXXOOX.<12    ",
"      @XOOXXXOOOOOXXXOOX o34    ",
"  56@ 7XOOXXXOOXOOXXXOOX     @. ",
"  859@@@XOOOOOXXXOOOOOX     .<0o",
"       XXOXOOOOOOOOOXOXX    qqw ",
"       XOOXXXXXXXXXXXOOX    ..  ",
"       XOOOXOXOXOXOXOOOX        ",
"        XXOOXXXXXXXOOXX         ",
"       XXXXXOOOOOOOXXXXX        ",
"      XeXXXXXXXXXXXXXXXeX       ",
"     XXeXrrXOOOXOOOXrrXeXX      ",
"     XeeeXrrXXXOXXXrrXeeeX      ",
"    XeeXXeXXXOOXOOXXXeXXeeX     ",
"    XeeeeXeeXOOOOOXeeXeeeeX     ",
"  58XeeeeeXeXXOOOXXeXeeeeeX@q@  ",
"  :t XeeeXeeXOOOOOXeeXeeeXo9q@  ",
"  o9  XXeXeeXXXXXXXeeXeXX8o9y@ut",
"   @   XXXeeXXXXXXXeeXXX6q @o<58",
"   +++&iXXXXXXXXXXXXXXX         ",
"  +paasXXXXXXXXXXXXXXXXX        ",
"  dfg8hXXXXXXXXjXXXXXXXX        ",
"  klzxcvXXXXXX.. XXXXXX         ",
"      XXXOOOOX   XOOOOXXX       ",
"      XOOOOOXX   XXOOOOOX       ",
"       XXXXX       XXXXX        ",
"                                "
};
