/* XPM */
static char *result[] = {
/* columns rows colors chars-per-pixel */
"32 32 19 1 ",
"  c #F6F6F6",
". c gray98",
"X c #EFEFEF",
"o c #F8F8F8",
"O c white",
"+ c #F3F3F3",
"@ c #E6E6E6",
"# c #D5D5D5",
"$ c #F1F1F1",
"% c #F4F4F4",
"& c #FBFBFB",
"* c #E7E7E7",
"= c #FDFDFD",
"- c black",
"; c #EEEBF1",
": c #EDE2F4",
"> c #4782C9",
", c #BDC0C9",
"< c #DFDFDF",
/* pixels */
" .XXXXoOOO+@#X$%&OOOoXXX  XXXXX*",
"=OXXXX$%%%XX---------XX == XXXXX",
" +$%&OO&%X--OOOOOOOOO--X . X+OOo",
"XX+&OOO=.-OOOOOOOOOOOOO-XXXX OO&",
"XXX$%%%+X-OOOOOOOOOOOOO-.. XX%%$",
"... XXX+-OOOOOOOOOOOOOOO-O=.+XXX",
"OOOO%X+.-OO---OOOOO---OO-OOO%$oO",
"OOOO%X%+-OO---OOOOO---OO-OOO%%OO",
"%&O&$ O=-OO---OO-OO---OO-OOO%%OO",
"XXXXX.OO%-OOOOO---OOOOO-OOO%XX%O",
"XX%%$X. --O-OOOOOOOOO-O--XX+%%+X",
";+OOo%%%-OO-----------OO-X$&OO&%",
":.OOOOOO-OOO-O-O-O-O-OOO-X%OOOOO",
"X.OOOOOOO--OO-------OO--XX%OOOO%",
"%%+.=O X-----OOOOOOO-----%+X . X",
"OO X+%X->--------------->-=+XX+.",
"OO= X -->-,,-OOO-OOO-,,->--&.+&O",
"OOO..O->>>-,,---O---,,->>>-OO%OO",
"..XX ->>-->---OO-OO--->-->>-++&O",
" .. X->>>>->>-OOOOO->>->>>>-.X$%",
"=OO=+->>>>>->--OOO-->->>>>>-O XX",
"OOOO%X->>>->>-OOOOO->>->>>-OO.XX",
"X . X+%-->->>------->>->--X .X$$",
"XXXX =OO--->>------->>---XXXX+&&",
"XXXX+&OOO---------------O XXX%Oo",
"XXX$%%+..---------------OO.XX+XX",
"XX$oOO%%%X-------------=O= X+&+X",
"XX%OOOOOO.--------,,,,-+%+XX.O=+",
"XX$oOOO&%%-OOOO-+--,,,,-XXXX+O&$",
"%$XXXX$%%-OOOOO-+%------XXXXXXXX",
"OoXXX+oOO-------&O&$XXXXXXXXXXXX",
"OOXXX+OOOOXXX.&OOOO&+XXXXXXXXXX<"
};
