/* XPM */
static char *result[] = {
/* columns rows colors chars-per-pixel */
"32 32 19 1 ",
"  c #F6F6F6",
". c gray98",
"X c #EFEFEF",
"o c #F8F8F8",
"O c white",
"+ c #F3F3F3",
"@ c #E6E6E6",
"# c #D5D5D5",
"$ c #F1F1F1",
"% c #F4F4F4",
"& c #FBFBFB",
"* c #E7E7E7",
"= c #FDFDFD",
"- c black",
"; c #EEEBF1",
": c #EDE2F4",
"> c #BDC0C9",
", c #4782C9",
"< c #DFDFDF",
/* pixels */
" .XXXXoOOO+@#X$%&OOOoXXX  XXXXX*",
"=OXXXX$%%%XXXXXX+%%%$XX == XXXXX",
" +$%&OO&%XX$---------%XX . X+OOo",
"XX+&OOO=.X--OOOOOOOOO--XXXXX OO&",
"XXX$%%%+X-OOOOOOOOOOOOO-.. XX%%$",
"... XXX+.-OOOOOOOOOOOOO-OO=.+XXX",
"OOOO%X+.-OOOOOOOOOOOOOOO-OOO%$oO",
"OOOO%X%+-OOO---OOOOOOOOO-OOO%%OO",
"%&O&$ O=-OOO---OOOOOOOOO-OOO%%OO",
"XXXXX.OO--OO---OOOOOOOO--OO%XX%O",
"XX%%$X. X--OOOOOOO--OO--XXX+%%+X",
";+OOo%%%-OOOOOOO-OOO--O-$X$&OO&%",
":.OOOOOO----------OO-OO-%X%OOOOO",
"X.OOOOOO--O-O-O-OOOO-O-%XX%OOOO%",
"%%+.=O XX------OOOO----+%%+X . X",
"OO X+%XXX-OOOOOOOO-->>>-OO=+XX+.",
"OO= X  X --------->>>>>>-OO&.+&O",
"OOO..O.XXOO--O-->>>------OOOO%OO",
"..XX .X$%X->--->>--,,,--....++&O",
" .. XX+&O.--OO->--,,,,,-.XX .X$%",
"=OO=+X&OOO--O---,,-,,,,,- +=O XX",
"OOOO%X%OOX--OOO-,-,-,,,,-X%OO.XX",
"X . X+%%%X------,-,,,,,,-XX .X$$",
"XXXX =OOO.X--OO-,-,,,,,-.XXXX+&&",
"XXXX+&OOOO -----,,-----OO XXX%Oo",
"XXX$%%+..--------,,,,,-OOO.XX+XX",
"XX$oOO%%%-OO-----------=O= X+&+X",
"XX%OOOOOO-OOO------->>-+%+XX.O=+",
"XX$oOOO&%%--OO--+X-->>-XXXXX+O&$",
"%$XXXX$%%XXX-OO-+->>--XXXXXXXXXX",
"OoXXX+oOO%XXX--%&----XXXXXXXXXXX",
"OOXXX+OOOOXXX.&OOOO&+XXXXXXXXXX<"
};
