/* XPM */
static char *result[] = {
/* columns rows colors chars-per-pixel */
"32 32 19 1 ",
"  c #F6F6F6",
". c gray98",
"X c #EFEFEF",
"o c #F8F8F8",
"O c white",
"+ c #F3F3F3",
"@ c #E6E6E6",
"# c #D5D5D5",
"$ c #F1F1F1",
"% c #F4F4F4",
"& c #FBFBFB",
"* c #E7E7E7",
"= c #FDFDFD",
"- c black",
"; c #EEEBF1",
": c #EDE2F4",
"> c #BDC0C9",
", c #4782C9",
"< c #DFDFDF",
/* pixels */
" .XXXXoOOO+@#X$%&OOOoXXX  XXXXX*",
"=OXXXX$%%%XX---------XX == XXXXX",
" +$%&OO&%X--OOOOOOOOO--X . X+OOo",
"XX+&OOO=.-OOOOOOOOOOOOO-XXXX OO&",
"XXX$%%%+X-OOOOOOOOOOOOO-.. XX%%$",
"... XXX+-OOOOOOOOOOOOOOO-O=.+XXX",
"OOOO%X+.-OOOOOOOOO---OOO-OOO%$oO",
"OOOO%X%+-OOOOOOOOO---OOO-OOO%%OO",
"%&O&$ O=--OOOOOOOO---OO--OOO%%OO",
"XXXXX.OO%--OO--OOOOOOO--OOO%XX%O",
"XX%%$X. X-O--OOO-OOOOOOO-XX+%%+X",
";+OOo%%%$-OO-OO----------X$&OO&%",
":.OOOOOO&X-O-OOOO-O-O-O--X%OOOOO",
"X.OOOOOOOX----OOOO------XX%OOOO%",
"%%+.=O XX->>>--OOOOOOOO-%%+X . X",
"OO X+%XX->>>>>>---------OO=+XX+.",
"OO= X  X------>>>--O--%OOOO&.+&O",
"OOO..O.XX--,,,-->>--->-OOOOOO%OO",
"..XX .X$%-,,,,,-->-OO-- ....++&O",
" .. XX+&-,,,,,-,,---O-- .XX .X$%",
"=OO=+X&O-,,,,-,-,-OOO--=O +=O XX",
"OOOO%X%O-,,,,,,-,------.OX%OO.XX",
"X . X+%%%-,,,,,-,-OO---XXXX .X$$",
"XXXX =OOO.-----,,-----+..XXXX+&&",
"XXXX+&OOOO-,,,,,------&OO XXX%Oo",
"XXX$%%+...X----------.OOOO.XX+XX",
"XX$oOO%%%XXX---------X.=O= X+&+X",
"XX%OOOOOO.XX .-------XX+%+XX.O=+",
"XX$oOOO&%%X+=-OOOOO---XXXXXX+O&$",
"%$XXXX$%%XXX ----OOOO-XXXXXXXXXX",
"OoXXX+oOO%XXXX$%-----XXXXXXXXXXX",
"OOXXX+OOOOXXX.&OOOO&+XXXXXXXXXX<"
};
