/* XPM */
static char *result[] = {
/* columns rows colors chars-per-pixel */
"32 32 61 1 ",
"  c #368D55",
". c #3B8F53",
"X c black",
"o c #3A8F53",
"O c white",
"+ c #348B56",
"@ c #3B8F54",
"# c #76A047",
"$ c #20775D",
"% c #1D745D",
"& c #7AA245",
"* c #297A58",
"= c #79A046",
"- c #78A045",
"; c #21745B",
": c #80A443",
"> c #779E45",
", c #1A645D",
"< c #75A048",
"1 c #308458",
"2 c #156765",
"3 c #156764",
"4 c #1A6E5E",
"5 c #7BA245",
"6 c #80A442",
"7 c #7AA246",
"8 c #3F9151",
"9 c #76A148",
"0 c #75A047",
"q c #368D56",
"w c #BDC0C9",
"e c #4782C9",
"r c #7BA345",
"t c #1D745E",
"y c #378D55",
"u c #7FA443",
"i c #409152",
"p c #328957",
"a c #24785B",
"s c #21765C",
"d c #1B705E",
"f c #1F765D",
"g c #23785B",
"h c #719C49",
"j c #6F9A49",
"k c #19655F",
"l c #22755C",
"z c #719D4A",
"x c #77A148",
"c c #18635D",
"v c #729C48",
"b c #318457",
"n c #146765",
"m c #1C725E",
"M c #22765C",
"N c #3F9051",
"B c #77A047",
"V c #146766",
"C c #388A54",
"Z c #156663",
"A c #196E5E",
/* pixels */
"                ..              ",
"            XXXXXXXXX           ",
"       oo XXOOOOOOOOOXX  +++    ",
"      @##XOOOOOOOOOOOOOX+$%%    ",
"        &XOOOOOOOOOOOOOX*=-;    ",
"        XOOOOOOOOOOOOOOOX:>,    ",
"       oXOOOOOOOOOXXXOOOX<12    ",
"      @#XOOOOOOOOOXXXOOOXo34    ",
"  56@ 7&XXOOOOOOOOXXXOOXX    @. ",
"  859@@@ XXOOXXOOOOOOOXX    .<0o",
"         XOXXOOOXOOOOOOOX   &&q ",
"         XOOXOOXXXXXXXXXX   ..  ",
"          XOXOOOOXOXOXOXX       ",
"          XXXXOOOOXXXXXX        ",
"         XwwwXXOOOOOOOOX        ",
"        XwwwwwwXXXXXXXXX        ",
"        XXXXXXwwwXXOXX          ",
"         XXeeeXXwwXXXwX         ",
"     @&. XeeeeeXXwXOOXX         ",
"    o<&.XeeeeeXeeXXXOXX         ",
"  58o<  XeeeeXeXeXOOOXX    @&@  ",
"  :r o  XeeeeeeXeXXXXXX   o9&@  ",
"  o9    tXeeeeeXeXOOXXX:58o9y@ur",
"   @    ++XXXXXeeXXXXXi56& @o<58",
"   +++pasdXeeeeeXXXXXX          ",
"  +fttghjk XXXXXXXXXX           ",
"  lzx8cvbn  XXXXXXXXX           ",
"  mMNBVCZAq  oXXXXXXX           ",
"             XOOOOOXXX          ",
"             XXXXOOOOX          ",
"                XXXXX           ",
"                                "
};
