/* XPM */
static char *result[] = {
/* columns rows colors chars-per-pixel */
"32 32 57 1 ",
"  c #368D55",
". c #3B8F53",
"X c black",
"o c #3A8F53",
"O c white",
"+ c #348B56",
"@ c #3B8F54",
"# c #76A047",
"$ c #20775D",
"% c #1D745D",
"& c #328957",
"* c #297A58",
"= c #79A046",
"- c #78A045",
"; c #21745B",
": c #80A443",
"> c #779E45",
", c #1A645D",
"< c #75A048",
"1 c #308458",
"2 c #156765",
"3 c #156764",
"4 c #1A6E5E",
"5 c #7BA245",
"6 c #80A442",
"7 c #7AA246",
"8 c #3F9151",
"9 c #76A148",
"0 c #75A047",
"q c #7AA245",
"w c #368D56",
"e c #BDC0C9",
"r c #4782C9",
"t c #7BA345",
"y c #378D55",
"u c #7FA443",
"i c #409152",
"p c #24785B",
"a c #21765C",
"s c #1F765D",
"d c #1D745E",
"f c #23785B",
"g c #719C49",
"h c #6F9A49",
"j c #22755C",
"k c #719D4A",
"l c #77A148",
"z c #18635D",
"x c #729C48",
"c c #318457",
"v c #1C725E",
"b c #22765C",
"n c #3F9051",
"m c #77A047",
"M c #146766",
"N c #388A54",
"B c #156663",
/* pixels */
"                ..              ",
"           XXXXXXXXX            ",
"       ooXXOOOOOOOOOXX   +++    ",
"      @#XOOOOOOOOOOOOOX +$%%    ",
"        XOOOOOOOOOOOOOX&*=-;    ",
"       XOOOOOOOOOOOOOOOX=:>,    ",
"       XOOOOOOOOOXXXOOOX.<12    ",
"      @XOOOOOOOOOXXXOOOX o34    ",
"  56@ 7XXOOOOOOOOXXXOOXX     @. ",
"  859@@@XXOOXXOOOOOOOXX     .<0o",
"        XOXXOOOXOOOOOOOX    qqw ",
"        XOOXOOXXXXXXXXXX    ..  ",
"         XOXOOOOXOXOXOXX        ",
"         XXXXOOOOXXXXXX         ",
"        XeeeXXOOOOOOOOX         ",
"       XeeeeeeXXXXXXXXX         ",
"       XXXXXXeeeXXOXX           ",
"        XXrrrXXeeXXXeX          ",
"     @q.XrrrrrXXeXOOXX          ",
"    o<qXrrrrrXrrXXXOXX          ",
"  58o< XrrrrXrXrXOOOXX     @q@  ",
"  :t o XrrrrrrXrXXXXXX    o9q@  ",
"  o9    XrrrrrXrXOOXX 5:58o9y@ut",
"   @    +XXXXXrrXXXXX i56q @o<58",
"   +++&paXrrrrrXXXXXXXX         ",
"  +sddfghXXXXXXXXXXXOOX         ",
"  jkl8zxcXeeXXXXXXXOOOX         ",
"  vbnmMNBXeeXX..XXOOXX          ",
"          XXeeX XOOX            ",
"           XXXX  XX             ",
"                                ",
"                                "
};
