/* XPM */
static char *result[] = {
/* columns rows colors chars-per-pixel */
"32 32 19 1 ",
"  c #F6F6F6",
". c gray98",
"X c #EFEFEF",
"o c #F8F8F8",
"O c white",
"+ c #F3F3F3",
"@ c #E6E6E6",
"# c #D5D5D5",
"$ c #F1F1F1",
"% c #F4F4F4",
"& c #FBFBFB",
"* c #E7E7E7",
"= c #FDFDFD",
"- c black",
"; c #EEEBF1",
": c #EDE2F4",
"> c #BDC0C9",
", c #4782C9",
"< c #DFDFDF",
/* pixels */
" .XXXXoOOO+@#X$%&OOOoXXX  XXXXX*",
"=OXXXX$%%%XXXXXX+%%%$XX == XXXXX",
" +$%&OO&%XX$---------%XX . X+OOo",
"XX+&OOO=.X--OOOOOOOOO--XXXXX OO&",
"XXX$%%%+X-OOOOOOOOOOOOO-.. XX%%$",
"... XXX+.-OOOOOOOOOOOOO-OO=.+XXX",
"OOOO%X+.-OOOOOOOOOOOOOOO-OOO%$oO",
"OOOO%X%+-OOOOOOOOO---OOO-OOO%%OO",
"%&O&$ O=-OOOOOOOOO---OOO-OOO%%OO",
"XXXXX.OO--OOOOOOOO---OO--OO%XX%O",
"XX%%$X. X--OO--OOOOOOO--XXX+%%+X",
";+OOo%%%$-O--OOO-OOOOOOO-X$&OO&%",
":.OOOOOO&-OO-OO----------X%OOOOO",
"X.OOOOOOOX-O-OOOO-O-O-O--X%OOOO%",
"%%+.=O XXX----OOOO------%%+X . X",
"OO X+%XXX->>>--OOOOOOOO-OO=+XX+.",
"OO= X  X->>>>>>---------OOO&.+&O",
"OOO..O.X------>>>--O--%OOOOOO%OO",
"..XX .X$%--,,,-->>--->- ....++&O",
" .. XX+&O-,,,,,-->-OO-- .XX .X$%",
"=OO=+X&O-,,,,,-,,---O--=O +=O XX",
"OOOO%X%O-,,,,-,-,-OOO--.OX%OO.XX",
"X . X+%%-,,,,,,-,------XXXX .X$$",
"XXXX =OOO-,,,,,-,-OO--+..XXXX+&&",
"XXXX+&OOOO-----,,-----&OO XXX%Oo",
"XXX$%%+...-,,,,,--------OO.XX+XX",
"XX$oOO%%%X-----------OO-O= X+&+X",
"XX%OOOOOO.->>-------OOO-%+XX.O=+",
"XX$oOOO&%%->>--.+--OO--XXXXX+O&$",
"%$XXXX$%%XX-->>-+-OO-XXXXXXXXXXX",
"OoXXX+oOO%XX----&O--XXXXXXXXXXXX",
"OOXXX+OOOOXXX.&OOOO&+XXXXXXXXXX<"
};
