/* XPM */
static char *result[] = {
/* columns rows colors chars-per-pixel */
"32 32 19 1 ",
"  c #F6F6F6",
". c gray98",
"X c #EFEFEF",
"o c #F8F8F8",
"O c white",
"+ c #F3F3F3",
"@ c #E6E6E6",
"# c #D5D5D5",
"$ c #F1F1F1",
"% c #F4F4F4",
"& c #FBFBFB",
"* c #E7E7E7",
"= c #FDFDFD",
"- c black",
"; c #EEEBF1",
": c #EDE2F4",
"> c #BDC0C9",
", c #4782C9",
"< c #DFDFDF",
/* pixels */
" .XXXXoOOO+@#X$%&OOOoXXX  XXXXX*",
"=OXXXX$%%%XX---------XX == XXXXX",
" +$%&OO&%X--OOOOOOOOO--X . X+OOo",
"XX+&OOO=.-OOOOOOOOOOOOO-XXXX OO&",
"XXX$%%%+X-OOOOOOOOOOOOO-.. XX%%$",
"... XXX+-OOOOOOOOOOOOOOO-O=.+XXX",
"OOOO%X+.-OOO---OOOOOOOOO-OOO%$oO",
"OOOO%X%+-OOO---OOOOOOOOO-OOO%%OO",
"%&O&$ O=--OO---OOOOOOOO--OOO%%OO",
"XXXXX.OO%--OOOOOOO--OO--OOO%XX%O",
"XX%%$X. -OOOOOOO-OOO--O-XXX+%%+X",
";+OOo%%%----------OO-OO-$X$&OO&%",
":.OOOOOO--O-O-O-OOOO-O-O%X%OOOOO",
"X.OOOOOOO------OOOO----%XX%OOOO%",
"%%+.=O XX-OOOOOOOO-->>>-%%+X . X",
"OO X+%XXX--------->>>>>>-O=+XX+.",
"OO= X  X OO--O-->>>------OO&.+&O",
"OOO..O.XXO->--->>--,,,--OOOOO%OO",
"..XX .X$%X--OO->--,,,,,-....++&O",
" .. XX+&O.--O---,,-,,,,,-XX .X$%",
"=OO=+X&OOO--OOO-,-,-,,,,- +=O XX",
"OOOO%X%OOX------,-,,,,,,-X%OO.XX",
"X . X+%%%X---OO-,-,,,,,-XXX .X$$",
"XXXX =OOO.X-----,,-----..XXXX+&&",
"XXXX+&OOOO ------,,,,,-OO XXX%Oo",
"XXX$%%+...X+----------OOOO.XX+XX",
"XX$oOO%%%XXX---------X.=O= X+&+X",
"XX%OOOOOO.XX-------..XX+%+XX.O=+",
"XX$oOOO&%%X---OOOOO-O.XXXXXX+O&$",
"%$XXXX$%%XX-OOOO----.XXXXXXXXXXX",
"OoXXX+oOO%XX-----O&$XXXXXXXXXXXX",
"OOXXX+OOOOXXX.&OOOO&+XXXXXXXXXX<"
};
