/* XPM */
static char *result[] = {
/* columns rows colors chars-per-pixel */
"32 32 63 1 ",
"  c #368D55",
". c #3B8F53",
"X c black",
"o c #3A8F53",
"O c white",
"+ c #348B56",
"@ c #3B8F54",
"# c #76A047",
"$ c #20775D",
"% c #1D745D",
"& c #7AA245",
"* c #297A58",
"= c #79A046",
"- c #78A045",
"; c #21745B",
": c #80A443",
"> c #779E45",
", c #1A645D",
"< c #75A048",
"1 c #308458",
"2 c #156765",
"3 c #156764",
"4 c #1A6E5E",
"5 c #7BA245",
"6 c #80A442",
"7 c #7AA246",
"8 c #3F9151",
"9 c #76A148",
"0 c #75A047",
"q c #368D56",
"w c #BDC0C9",
"e c #4782C9",
"r c #328956",
"t c #24785C",
"y c #7BA345",
"u c #23785B",
"i c #719C49",
"p c #1D745E",
"a c #1E745E",
"s c #378D55",
"d c #7FA443",
"f c #328957",
"g c #24785B",
"h c #21765C",
"j c #1B705E",
"k c #1F765D",
"l c #6F9A49",
"z c #19655F",
"x c #22755C",
"c c #719D4A",
"v c #77A148",
"b c #18635D",
"n c #729C48",
"m c #318457",
"M c #146765",
"N c #1C725E",
"B c #22765C",
"V c #3F9051",
"C c #77A047",
"Z c #146766",
"A c #388A54",
"S c #156663",
"D c #196E5E",
/* pixels */
"                ..              ",
"            XXXXXXXXX           ",
"       oo XXOOOOOOOOOXX  +++    ",
"      @##XOOOOOOOOOOOOOX+$%%    ",
"        &XOOOOOOOOOOOOOX*=-;    ",
"        XOOOOOOOOOOOOOOOX:>,    ",
"       oXOOOXXXOOOOOOOOOX<12    ",
"      @#XOOOXXXOOOOOOOOOXo34    ",
"  56@ 7&XXOOXXXOOOOOOOOXX    @. ",
"  859@@@ XXOOOOOOOXXOOXX    .<0o",
"        XOOOOOOOXOOOXXOX    &&q ",
"        XXXXXXXXXXOOXOOX    ..  ",
"        XXOXOXOXOOOOXOX         ",
"         XXXXXXOOOOXXXX         ",
"         XOOOOOOOOXXwwwX        ",
"         XXXXXXXXXwwwwwwX       ",
"           XXOXXwwwXXXXXX       ",
"          XwXXXwwXXeeeXX        ",
"     @&.  XXOOXwXXeeeeeX        ",
"    o<&.  XXOXXXeeXeeeeeX       ",
"  58o<  rtXXOOOXeXeXeeeeX  @&@  ",
"  :y o  uiXXXXXXeXeeeeeeX o9&@  ",
"  o9    paXXXOOXeXeeeeeX58o9s@dy",
"   @    ++ XXXXXeeXXXXX56& @o<58",
"   +++fghjqXXXXXXeeeeeX         ",
"  +kppuilz  XXXXXXXXXX          ",
"  xcv8bnmM  XXXXXXXXX           ",
"  NBVCZASDq XXXXXXX             ",
"           XXXOOOOOX            ",
"           XOOOOXXXX            ",
"            XXXXX               ",
"                                "
};
