/* XPM */
static char *result[] = {
/* columns rows colors chars-per-pixel */
"32 32 37 1 ",
"  c #F6F6F6",
". c gray98",
"X c #EFEFEF",
"o c #F8F8F8",
"O c white",
"+ c #F3F3F3",
"@ c #E6E6E6",
"# c #D5D5D5",
"$ c #F1F1F1",
"% c #F4F4F4",
"& c #FBFBFB",
"* c #E7E7E7",
"= c #FDFDFD",
"- c #0F2D28",
"; c #368C47",
": c #4AB734",
"> c #D3E7E8",
", c #246544",
"< c #ACC2C8",
"1 c #F2FFFF",
"2 c #425560",
"3 c #245F41",
"4 c #2B6E3A",
"5 c #277345",
"6 c #28673E",
"7 c #40A23D",
"8 c #1B473E",
"9 c #8BA1AB",
"0 c #1F5640",
"q c #EEEBF1",
"w c #1E5140",
"e c #EDE2F4",
"r c #748B97",
"t c #A3B1B6",
"y c #818C92",
"u c #CADCDE",
"i c #DFDFDF",
/* pixels */
" .XXXXoOOO+@#X$%&OOOoXXX  XXXXX*",
"=OXXXX$%%%XXXX-X-%%-$XX == XXXXX",
" +$%&OO&%XX-&-;-:--;-%XX . X+OOo",
"XX+&OOO=.--;->;;:;;,><-XXXXX OO&",
"XXX$%%%+X-,,>1>;:>>>>><2.. XX%%$",
"... XXX22>,:3>4:>>11><<<-O=.+XXX",
"OOOO%--<>1>5:6<>>1111><3;--O%$oO",
"OOOO%-<>1>>57<<>11111><,,8>2%%OO",
"%&O&29<>>>3>;<>>11111><>8>>>2%OO",
"XXXX29<<>0<>>4<>>111>><<>>1>>2%O",
"XX%--99<<;0<3;<>>>>>><<<<>>><2+X",
"q+-8,w990573;9<<>>>><<940<<<2O&%",
"e.O-88887<>>:99<<<<<<905;099w-OO",
"X.OO--77<>11>099<<<<9355;;3<-OO%",
"%%---779<>>1>>6399993;;15;<><- X",
"O-,,,,89<<>>><770000,;>><53<-X+.",
"OO-88<509<<<<6>1555;1>w<w5,8,-&O",
"OOO-9<<,8999w<<>>,>>><>w;,555-OO",
"..-599<8;33w,9<<<<<<<<95,88555-O",
" ..--9-;;;<,,09<<9w999w55588--$%",
"=OO=+-88,<<<,;399w5w838,5<9-O XX",
"OOOO-,,,99<<8;;w8,55,<<8<99r-.XX",
"X .-,,--r9999<;,88,5<<<99rrr2X$$",
"XXXX---5rr99<<<<88859999rrr-X+&&",
"XXXX+&t--rr8r9<9r8,<0r9r-8w,-%Oo",
"XXX$%tt-,88-wr9r-8r9r8r-y---X+XX",
"XX$oOt-88---,898--wrw--yyyyt+&+X",
"XX%OOtt--yyy-rrr2y-w,92yyttt.O=+",
"XX$oOOttuty-,wr2yyy-rrr2tttX+O&$",
"%$XXXX$tttt-,-2yytyy2r-tutXXXXXX",
"OoXXX+oOttt--yyttttuy2tttXXXXXXX",
"OOXXX+OOOOttttttuttttttXXXXXXXXi"
};
