/* XPM */
static char *result[] = {
/* columns rows colors chars-per-pixel */
"32 32 122 2 ",
"   c #6A331D",
".  c #693420",
"X  c #024E25",
"o  c #0C4E2B",
"O  c #005426",
"+  c #005927",
"@  c #025729",
"#  c #025C2B",
"$  c #1F562E",
"%  c #03632E",
"&  c #056630",
"*  c #096534",
"=  c #056D34",
"-  c #086D35",
";  c #126D3E",
":  c #047236",
">  c #067639",
",  c #09743A",
"<  c #067B3D",
"1  c #097C3D",
"2  c #13763D",
"3  c #107B3E",
"4  c #72452A",
"5  c #7F4229",
"6  c #6D5630",
"7  c #6A643A",
"8  c #097F40",
"9  c #1B7547",
"0  c #117D40",
"q  c #18635D",
"w  c #196E5E",
"e  c #1D745E",
"r  c #22755C",
"t  c #23785B",
"y  c #146765",
"u  c #89462B",
"i  c #8D492E",
"p  c #914B2F",
"a  c #8D4F36",
"s  c #884F39",
"d  c #944E32",
"f  c #984E32",
"g  c #8C5335",
"h  c #8D543F",
"j  c #995235",
"k  c #9C5539",
"l  c #A15539",
"z  c #A65A3E",
"x  c #856642",
"c  c #816842",
"v  c #9F6B53",
"b  c #A46043",
"n  c #AD6144",
"m  c #B3664A",
"M  c #09813F",
"N  c #0B8342",
"B  c #0D8947",
"V  c #0E8C4B",
"C  c #118445",
"Z  c #1A8345",
"A  c #168648",
"S  c #1F864C",
"D  c #108B49",
"F  c #1A894C",
"G  c #10904E",
"H  c #13984F",
"J  c #189253",
"K  c #169E56",
"L  c #189957",
"P  c #189F59",
"I  c #3A8C41",
"U  c #238D53",
"Y  c #2D8C52",
"T  c #318457",
"R  c #368D55",
"E  c #3A8E54",
"W  c #2F925C",
"Q  c #269D5D",
"!  c #3F9151",
"~  c #32925D",
"^  c #3F935D",
"/  c #16A257",
"(  c #17A359",
")  c #19A65B",
"_  c #19A95C",
"`  c #3A9964",
"'  c #1CA761",
"]  c #1CAD62",
"[  c #1EB164",
"{  c #23A361",
"}  c #21AC65",
"|  c #27AB68",
" . c #20B167",
".. c #22B46A",
"X. c #25BA6E",
"o. c #26BD71",
"O. c #2BBC73",
"+. c #46935F",
"@. c #729D49",
"#. c #77A047",
"$. c #7CA344",
"%. c #76A148",
"&. c #449662",
"*. c #459862",
"=. c #459D6C",
"-. c #4C9C69",
";. c #539565",
":. c #43827A",
">. c #4DA271",
",. c #5CA97F",
"<. c #27C375",
"1. c #29C375",
"2. c #2BC779",
"3. c #2ECB7B",
"4. c #30C579",
"5. c #32CB7C",
"6. c #30D37F",
"7. c #80A443",
"8. c #6DAE8A",
"9. c #36CF81",
"0. c #32D583",
"q. c #33D884",
/* pixels */
"R R R R R R R R T R R R R R R R ! R R R R R R R R R R R R R R R ",
"R R R R R R R R Y 8.W % # % % + O O % - , M ` R R R R R R R R R ",
"R R R R R R R =.W , & q.0.0.0.0.q.q.q.q.0.& M N >.R R R R R R R ",
"R R R R R R *., & 5.9.q.q.q.q.0.0.0.q.q.q.6.1.< , ` e e R R R R ",
"R R R R R M 1 D 3.q.q.q.0.0.<.<.1.1.0.0.q.q.q.X.4.* 8.r R R R R ",
"R R R R N 1 0.0.0.q.q.0.<.<.<.<.<.1.<.<.0.q.q.q.0.0.= :.R R R R ",
"R R U M M [ <.<.<.q.0.<.<.<.<.<.<.1.<.1.<.0.q.<.<.<.1.% 1 C R R ",
"R R F M } N 2.<.<.o.N X.< <.0.q.q.q.o.< [ N <.<.<.1.N O.J F R R ",
"R M , O.B o.0.<.<.<.[ 8 o.1.0.q.q.q.<...N ..<.<.1.0.<.M O.9 N R ",
"R M 4.1.o.1.0.0.<.<.<.o.<.<.<.0.q.2.<.<.o.<.<.<.6.0.<.X.<.1.- R ",
"Y , } 1.1.<.2.1.<.] ] <.<.<.<.<.<.<.<.<.o.] _ <.<.<.<.<.1.' # R ",
"R N # _ ] <.<.o.] ) ) ] 1.1.<.1.<.1.O.1.] _ ) ] <.1.1.] _ O ~ R ",
"R R Y > ) _ ) _ / : > ' _ ] o.< 1.: ) _ ) > = ) _ ) ) ) % U R R ",
"R R F + , ) ) ( < ..[ : ) _ _ P > ( ) ) > ..X.< / ) ) N , N R R ",
"R *.2 { ] 8 < 8 ..<.<...< 8 ) ) K ) < < ..<.<.[ N > > ..{ 2 =.R ",
"R 3 } 1.1.3.3.3.<.<.<.<...[ > : : > ....<.<.<.1.3.3.3.<.1.| , R ",
"S , 1.<.0.q.q.0.0.<.<.<.<.<.2.3.1.3.<.<.1.<.<.0.0.0.q.0.<.o.8 R ",
"R < 2.1.o.G 0.V 2.1.1.<.M 3.V 6.q.q.B X.B o.<.1.G 9.G <.<.o.< R ",
"R A , ] o.[ B ..o.] [ <.[ B ..6.q.1.[ B ] ] 1 X.[ V ] <.[ ; A R ",
"R -.8 N [ <.[ <.] _ _ [ 1.[ 1.2.2.<.o...] _ / ] o.[ <.] ( = O.R ",
"R R C 1 H ' ] ] ( < N ) _  .] _ [ ] _  .) M < ) ] ] ] / < C R R ",
"R R 7.N , ] ] _ N ' ) N _ _ _ _ ) ) ) ) N ) ' N / _ _ & N E R R ",
"R R ! -.> B X.) ..O.o.} , 7 2 7 < 1 7 1 } 1.<.} M O > I +.R 7.$.",
"R R W ! 8 < L L 2.] < & ' g x z 6 c g Q X O 1.<._ = < C E @.$.+.",
"R R R R R N N # - o A Z 4 p m m f m u $ S N - = * S C R R R R R ",
"R R R r e e r A M U R R i p m l n m u . -.R M W F R R R R R R R ",
"R R r @.@.+.y @.T y R R i p m f m m u . *.E R R R R R R R R R R ",
"R R w r +.@.y E y y R R i p n p m m u   ;.R R R R R R R R R R R ",
"R R R R I R R R R R R s i d d f m m k u a +.R R R R R R R R R R ",
"R R R R R R R R R R ;.i d n f d m l n d p v R R R R R R R R R R ",
"R R R R R R R R R R h   f d l n m p m k p p R R R R R R R R R R ",
"R R R R R R R R R a 5 d f z z m l d m m f p h R R R R R R R R R "
};
